<svg width="435" height="434" viewBox="0 0 435 434" fill="none" xmlns="http://www.w3.org/2000/svg">
<path fill-rule="evenodd" clip-rule="evenodd" d="M4.20101 2.62199C1.35701 5.27099 0.49501 8.95999 1.91701 12.393C2.54601 13.912 97.211 109.303 212.285 224.374C417.386 429.471 421.584 433.594 425.32 433.594C427.416 433.594 429.966 433.147 430.986 432.602C433.384 431.318 435.29 425.553 434.248 422.735C433.608 421.004 41.075 27.232 19.013 6.18799C12.404 -0.116012 8.22001 -1.12301 4.20101 2.62199ZM344.252 77.844C301.736 120.332 266.061 156.497 264.975 158.212C262.339 162.373 262.486 164.83 265.589 168.517C267.715 171.045 268.92 171.594 272.336 171.594H276.494L345.719 102.353C383.793 64.271 415.295 32.996 415.722 32.853C416.15 32.711 416.481 86.032 416.458 151.344C416.434 216.657 416.659 273.791 416.958 278.31C417.614 288.257 418.844 289.927 425.508 289.927C428.914 289.927 430.682 289.357 432.306 287.733L434.5 285.538V145.48V5.42099L431.694 3.00698C429.831 1.40498 427.656 0.593986 425.222 0.593986C421.698 0.593986 418.536 3.61198 344.252 77.844ZM4.73601 130.844C0.604011 133.982 0.646009 132.578 0.544009 272.094C0.491009 345.794 0.68401 411.587 0.97301 418.302C1.58101 432.377 2.25601 433.508 10.095 433.562C13.523 433.586 15.174 433.06 16.595 431.489C18.443 429.447 18.515 425.367 19 294.739L19.5 160.094L83.757 224.398C120.576 261.245 149.185 289.104 150.757 289.644C155.199 291.167 159.249 289.509 161.323 285.317C162.473 282.994 162.885 280.808 162.44 279.405C162.051 278.18 128.511 243.971 87.906 203.386C15.721 131.235 13.994 129.594 10.231 129.594C8.11401 129.594 5.64201 130.157 4.73601 130.844Z" fill="url(#paint0_linear_1_7)"/>
<defs>
<linearGradient id="paint0_linear_1_7" x1="-217.5" y1="46.5001" x2="-534.5" y2="406.5" gradientUnits="userSpaceOnUse">
<stop stop-color="#00B6FF"/>
<stop offset="1" stop-color="#00B6FF" stop-opacity="0"/>
</linearGradient>
</defs>
</svg>
